<svg xmlns="http://www.w3.org/2000/svg" viewBox="0 0 24 24" fill="currentColor"><path d="M12 2.163c3.204 0 3.584.012 4.85.07 1.17.054 1.97.24 2.43.403a4.07 4.07 0 011.47.96c.458.457.78.918.96 1.47.163.46.35 1.26.403 2.43.058 1.266.07 1.646.07 4.85s-.012 3.584-.07 4.85c-.054 1.17-.24 1.97-.403 2.43a4.07 4.07 0 01-.96 1.47 4.07 4.07 0 01-1.47.96c-.46.163-1.26.35-2.43.403-1.266.058-1.646.07-4.85.07s-3.584-.012-4.85-.07c-1.17-.054-1.97-.24-2.43-.403a4.07 4.07 0 01-1.47-.96 4.07 4.07 0 01-.96-1.47c-.163-.46-.35-1.26-.403-2.43C2.175 15.584 2.163 15.204 2.163 12s.012-3.584.07-4.85c.054-1.17.24-1.97.403-2.43a4.07 4.07 0 01.96-1.47 4.07 4.07 0 011.47-.96c.46-.163 1.26-.35 2.43-.403C8.416 2.175 8.796 2.163 12 2.163M12 0C8.741 0 8.333.014 7.053.072 5.775.13 4.902.333 4.14.63a5.88 5.88 0 00-2.126 1.384A5.88 5.88 0 00.63 4.14C.333 4.902.13 5.775.072 7.053.014 8.333 0 8.741 0 12s.014 3.667.072 4.947c.058 1.278.261 2.15.558 2.913a5.88 5.88 0 001.384 2.126A5.88 5.88 0 004.14 23.37c.763.297 1.636.5 2.913.558C8.333 23.986 8.741 24 12 24s3.667-.014 4.947-.072c1.278-.058 2.15-.261 2.913-.558a5.88 5.88 0 002.126-1.384 5.88 5.88 0 001.384-2.126c.297-.763.5-1.636.558-2.913.058-1.28.072-1.688.072-4.947s-.014-3.667-.072-4.947c-.058-1.278-.261-2.15-.558-2.913a5.88 5.88 0 00-1.384-2.126A5.88 5.88 0 0019.86.63C19.097.333 18.224.13 16.947.072 15.667.014 15.259 0 12 0zm0 5.838a6.162 6.162 0 100 12.324 6.162 6.162 0 000-12.324zM12 16a4 4 0 110-8 4 4 0 010 8zm6.406-11.845a1.44 1.44 0 11-2.88 0 1.44 1.44 0 012.88 0z"/></svg>
