<svg xmlns="http://www.w3.org/2000/svg" viewBox="0 0 24 24" fill="currentColor"><path d="M12 0C5.373 0 0 5.373 0 12s5.373 12 12 12 12-5.373 12-12S18.627 0 12 0zm-.5 2.05A9.95 9.95 0 0112 2c.168 0 .335.006.5.016V2.05c-.44.37-1.36 1.36-1.85 3.45H8.4c.68-1.84 1.72-3 3.1-3.45zm-3.97.82A10.04 10.04 0 004.67 5.5H6.3a12.85 12.85 0 011.23-2.63zM4.26 7.5h2.53a17.7 17.7 0 00-.27 3H2.05A9.92 9.92 0 014.26 7.5zm-2.21 5h4.47c.04 1.05.14 2.05.3 3H4.26A9.93 9.93 0 012.05 12.5zm2.62 5h1.95a12.85 12.85 0 01-1.14 2.38A10.04 10.04 0 014.67 17.5zm3.82 3.45A9.95 9.95 0 018.07 21c-.16 0-.32-.005-.47-.014.42-.38 1.33-1.39 1.84-3.486h2.06c-.62 1.8-1.58 2.95-2.93 3.45zm3.94-3.45h-2.4c.14-.92.24-1.94.28-3h4.47a9.92 9.92 0 01-2.35 3zm2.76-5H10.7a17.5 17.5 0 00-.27-3h4.83c.16.95.26 1.95.3 3zm.14-5h-4.6c.39-1.76 1.08-3.03 1.77-3.45a10.08 10.08 0 013.97 3.45h-1.14zm2.41 2A9.93 9.93 0 0121.95 10.5h-4.47c-.04-1.05-.14-2.05-.3-3h2.56zm.54-2h-1.63a12.85 12.85 0 00-1.23-2.63A10.04 10.04 0 0119.33 5.5zm-3.85 12a12.85 12.85 0 001.14 2.38 10.04 10.04 0 01-2.82-2.38h1.68zm2.27 2a9.95 9.95 0 01.35.018A10.02 10.02 0 0019.33 17.5h-1.63c.39.83.74 1.75 1.05 2.75z"/></svg>
